<svg xmlns="http://www.w3.org/2000/svg" viewBox="0 0 512 512">
  <defs>
    <linearGradient id="grad1" x1="0%" y1="0%" x2="100%" y2="100%">
      <stop offset="0%" style="stop-color:#007acc;stop-opacity:1" />
      <stop offset="100%" style="stop-color:#005a9e;stop-opacity:1" />
    </linearGradient>
  </defs>
  
  <!-- Background -->
  <rect width="512" height="512" rx="64" ry="64" fill="#1e1e1e"/>
  
  <!-- Terminal window -->
  <rect x="64" y="96" width="384" height="288" rx="16" ry="16" fill="#2d2d30" stroke="#007acc" stroke-width="2"/>
  
  <!-- Terminal header -->
  <rect x="64" y="96" width="384" height="48" rx="16" ry="16" fill="url(#grad1)"/>
  <rect x="64" y="128" width="384" height="16" fill="url(#grad1)"/>
  
  <!-- Window controls -->
  <circle cx="96" cy="120" r="6" fill="#ff5f57"/>
  <circle cx="120" cy="120" r="6" fill="#ffbd2e"/>
  <circle cx="144" cy="120" r="6" fill="#28ca42"/>
  
  <!-- Terminal content lines -->
  <rect x="96" y="168" width="320" height="8" rx="4" fill="#007acc"/>
  <rect x="96" y="188" width="280" height="8" rx="4" fill="#4fc1ff"/>
  <rect x="96" y="208" width="300" height="8" rx="4" fill="#007acc"/>
  <rect x="96" y="228" width="200" height="8" rx="4" fill="#4fc1ff"/>
  
  <!-- Cursor -->
  <rect x="224" y="248" width="12" height="16" fill="#00ff00" opacity="0.8"/>
  
  <!-- Connection lines (representing tunnel/multiplexing) -->
  <path d="M 256 400 Q 180 420 120 450" stroke="#007acc" stroke-width="4" fill="none" opacity="0.6"/>
  <path d="M 256 400 Q 332 420 392 450" stroke="#007acc" stroke-width="4" fill="none" opacity="0.6"/>
  <path d="M 256 400 Q 256 430 256 460" stroke="#007acc" stroke-width="4" fill="none" opacity="0.6"/>
  
  <!-- Connection endpoints -->
  <circle cx="120" cy="450" r="8" fill="#007acc"/>
  <circle cx="256" cy="460" r="8" fill="#007acc"/>
  <circle cx="392" cy="450" r="8" fill="#007acc"/>
</svg>